<svg id="Lager_1" data-name="Lager 1" xmlns="http://www.w3.org/2000/svg" viewBox="0 0 460.01 450"><defs><style>.cls-1{fill:#8a8d8f;}</style></defs><title>Astra symbol_RGB_Silver</title><path class="cls-1" d="M38.44,437.75l0,.09Z" transform="translate(0.01)"/><path class="cls-1" d="M38.29,438.09l.11-.25a1.79,1.79,0,0,1-.12.24Z" transform="translate(0.01)"/><path class="cls-1" d="M440,215H307.45L218.31,12a20,20,0,0,0-36.62,0L1.69,422A20,20,0,1,0,38.31,438l80.36-183L367.84,445.88A20,20,0,0,0,398.31,422L325,255H440a20,20,0,0,0,0-40ZM200,69.75,263.77,215H136.23ZM330.42,366.83,184.45,255h96.88Z" transform="translate(0.01)"/></svg>